<svg xmlns="http://www.w3.org/2000/svg" viewBox="0 0 512 512" role="img" aria-labelledby="title desc">
  <title id="title">Things Web Logo</title>
  <desc id="desc">A stylized quill and book emblem in warm gold tones.</desc>
  <defs>
    <linearGradient id="bgGradient" x1="64" y1="40" x2="448" y2="472" gradientUnits="userSpaceOnUse">
      <stop offset="0" stop-color="#1f334d" />
      <stop offset="0.55" stop-color="#172538" />
      <stop offset="1" stop-color="#0f1827" />
    </linearGradient>
    <linearGradient id="inkGradient" x1="170" y1="130" x2="348" y2="388" gradientUnits="userSpaceOnUse">
      <stop offset="0" stop-color="#f4d59c" />
      <stop offset="0.5" stop-color="#ddb16d" />
      <stop offset="1" stop-color="#b9853c" />
    </linearGradient>
    <radialGradient id="glowGradient" cx="0" cy="0" r="1" gradientUnits="userSpaceOnUse" gradientTransform="translate(210 138) rotate(33) scale(168 146)">
      <stop offset="0" stop-color="#f3d595" stop-opacity="0.58" />
      <stop offset="1" stop-color="#f3d595" stop-opacity="0" />
    </radialGradient>
  </defs>

  <rect x="32" y="32" width="448" height="448" rx="118" fill="url(#bgGradient)" />
  <rect x="48" y="48" width="416" height="416" rx="102" fill="none" stroke="rgba(244,214,164,0.26)" stroke-width="3" />
  <ellipse cx="206" cy="146" rx="182" ry="138" fill="url(#glowGradient)" />

  <path d="M256 146c-20 20-34 40-41 68l-30 116c-3 12 8 23 20 20l116-30c28-7 48-21 68-41-30-17-55-42-72-72-30 20-51 41-61 61l-15 34 34-15c20-10 41-31 61-61-30-17-55-42-72-72z" fill="#7d5827" opacity=".33" />

  <path d="M327 116c20 40 48 68 90 88-23 24-48 40-80 48l-120 31 31-120c8-32 24-57 48-80 20 42 48 70 88 89" fill="url(#inkGradient)" />
  <path d="M340 126c15 31 36 53 67 67-17 16-35 26-59 32l-95 24 24-95c6-24 16-42 32-59 14 31 36 52 67 67" fill="#f8e4bd" opacity=".5" />

  <path d="M117 286c50-28 94-37 141-28 47 9 89 35 133 82-43 22-84 29-126 20-42-9-84-34-127-74l-21 35-25-15 25-41z" fill="#e3be82" />
  <path d="M118 303c45-24 84-31 124-23 40 8 77 29 114 65-36 16-72 21-108 14-36-7-73-26-111-56l-19 31-15-10 15-25z" fill="#f6dfb2" opacity=".58" />

  <circle cx="388" cy="136" r="9" fill="#f3d595" />
  <path d="M388 111v16M388 145v16M405 136h-16M371 136h-16" stroke="#f3d595" stroke-width="6" stroke-linecap="round" />
</svg>
